# xmcd
#
# Track frame offsets:
#	150
#	18318
#	34285
#	47086
#	66558
#	78088
#	91183
#	107531
#	122684
#	132691
#	148346
#	158908
#
# Disc length: 2329 seconds
#
# Revision: 3847713326
# Processed by: cddbd v1.5.2PL0 Copyright (c) Steve Scherf et al.
# Submitted via: EZCDAudioConverter 8.5.0.1
#
DISCID=a609170c
DTITLE=Eddy Arnold - After All These Years
DYEAR=2005
DGENRE=Country
TTITLE0=Old Porch Swing
TTITLE1=I'm Gonna Be Home With You
TTITLE2=It'll Be Her
TTITLE3=If I Had Lived My Life Without You
TTITLE4=Don't She Look Good
TTITLE5=I've Been Down Some Roads
TTITLE6=When I Dream
TTITLE7=After All These Years
TTITLE8=King Of The Road
TTITLE9=If Only
TTITLE10=You Don't Know Me
TTITLE11=To Life
EXTD=
EXTT0=
EXTT1=
EXTT2=
EXTT3=
EXTT4=
EXTT5=
EXTT6=
EXTT7=
EXTT8=
EXTT9=
EXTT10=
EXTT11=
PLAYORDER=
